<mxfile host="app.diagrams.net" modified="2023-04-23T14:52:37.399Z" agent="Mozilla/5.0 (Windows NT 10.0; Win64; x64) AppleWebKit/537.36 (KHTML, like Gecko) Chrome/111.0.0.0 Safari/537.36" etag="T_ExuTigd9xygoP4XWjh" version="21.2.1" type="github">
  <diagram name="第 1 页" id="EQ33Ez5Qd2vefSu-h-e_">
    <mxGraphModel dx="1050" dy="581" grid="0" gridSize="10" guides="1" tooltips="1" connect="1" arrows="1" fold="1" page="1" pageScale="1" pageWidth="827" pageHeight="1169" math="0" shadow="0">
      <root>
        <mxCell id="0" />
        <mxCell id="1" parent="0" />
        <mxCell id="qFoNEInCb8xIXZmdPU0b-1" value="学生" style="shape=umlActor;verticalLabelPosition=bottom;verticalAlign=top;html=1;outlineConnect=0;" vertex="1" parent="1">
          <mxGeometry x="62" y="235" width="30" height="60" as="geometry" />
        </mxCell>
        <mxCell id="qFoNEInCb8xIXZmdPU0b-2" value="修改密码" style="ellipse;whiteSpace=wrap;html=1;" vertex="1" parent="1">
          <mxGeometry x="160" y="170" width="120" height="50" as="geometry" />
        </mxCell>
        <mxCell id="qFoNEInCb8xIXZmdPU0b-3" value="查询历史体测数据" style="ellipse;whiteSpace=wrap;html=1;" vertex="1" parent="1">
          <mxGeometry x="160" y="240" width="120" height="50" as="geometry" />
        </mxCell>
        <mxCell id="qFoNEInCb8xIXZmdPU0b-4" value="查看体测标准" style="ellipse;whiteSpace=wrap;html=1;" vertex="1" parent="1">
          <mxGeometry x="160" y="320" width="120" height="50" as="geometry" />
        </mxCell>
        <mxCell id="qFoNEInCb8xIXZmdPU0b-5" value="" style="endArrow=none;html=1;rounded=0;entryX=0;entryY=0.5;entryDx=0;entryDy=0;exitX=1;exitY=0.3333333333333333;exitDx=0;exitDy=0;exitPerimeter=0;" edge="1" parent="1" source="qFoNEInCb8xIXZmdPU0b-1" target="qFoNEInCb8xIXZmdPU0b-2">
          <mxGeometry width="50" height="50" relative="1" as="geometry">
            <mxPoint x="90" y="260" as="sourcePoint" />
            <mxPoint x="140" y="210" as="targetPoint" />
          </mxGeometry>
        </mxCell>
        <mxCell id="qFoNEInCb8xIXZmdPU0b-6" value="" style="endArrow=none;html=1;rounded=0;entryX=0;entryY=0.5;entryDx=0;entryDy=0;exitX=1;exitY=0.3333333333333333;exitDx=0;exitDy=0;exitPerimeter=0;" edge="1" parent="1" source="qFoNEInCb8xIXZmdPU0b-1" target="qFoNEInCb8xIXZmdPU0b-3">
          <mxGeometry width="50" height="50" relative="1" as="geometry">
            <mxPoint x="90" y="260" as="sourcePoint" />
            <mxPoint x="140" y="210" as="targetPoint" />
          </mxGeometry>
        </mxCell>
        <mxCell id="qFoNEInCb8xIXZmdPU0b-7" value="" style="endArrow=none;html=1;rounded=0;entryX=0;entryY=0.5;entryDx=0;entryDy=0;exitX=1;exitY=0.3333333333333333;exitDx=0;exitDy=0;exitPerimeter=0;" edge="1" parent="1" source="qFoNEInCb8xIXZmdPU0b-1" target="qFoNEInCb8xIXZmdPU0b-4">
          <mxGeometry width="50" height="50" relative="1" as="geometry">
            <mxPoint x="90" y="260" as="sourcePoint" />
            <mxPoint x="140" y="210" as="targetPoint" />
          </mxGeometry>
        </mxCell>
        <mxCell id="qFoNEInCb8xIXZmdPU0b-8" value="教师" style="shape=umlActor;verticalLabelPosition=bottom;verticalAlign=top;html=1;outlineConnect=0;" vertex="1" parent="1">
          <mxGeometry x="532" y="240" width="30" height="60" as="geometry" />
        </mxCell>
        <mxCell id="qFoNEInCb8xIXZmdPU0b-9" value="修改密码" style="ellipse;whiteSpace=wrap;html=1;flipV=1;" vertex="1" parent="1">
          <mxGeometry x="339" y="168" width="120" height="50" as="geometry" />
        </mxCell>
        <mxCell id="qFoNEInCb8xIXZmdPU0b-10" value="查看体测任务" style="ellipse;whiteSpace=wrap;html=1;flipV=1;" vertex="1" parent="1">
          <mxGeometry x="339" y="234" width="120" height="50" as="geometry" />
        </mxCell>
        <mxCell id="qFoNEInCb8xIXZmdPU0b-11" value="查看体测标准" style="ellipse;whiteSpace=wrap;html=1;flipV=1;" vertex="1" parent="1">
          <mxGeometry x="339" y="300" width="120" height="50" as="geometry" />
        </mxCell>
        <mxCell id="qFoNEInCb8xIXZmdPU0b-12" value="" style="endArrow=none;html=1;rounded=0;entryX=1;entryY=0.5;entryDx=0;entryDy=0;exitX=0;exitY=0.3333333333333333;exitDx=0;exitDy=0;exitPerimeter=0;" edge="1" source="qFoNEInCb8xIXZmdPU0b-8" target="qFoNEInCb8xIXZmdPU0b-9" parent="1">
          <mxGeometry width="50" height="50" relative="1" as="geometry">
            <mxPoint x="552" y="267" as="sourcePoint" />
            <mxPoint x="629" y="220" as="targetPoint" />
          </mxGeometry>
        </mxCell>
        <mxCell id="qFoNEInCb8xIXZmdPU0b-13" value="" style="endArrow=none;html=1;rounded=0;exitX=0;exitY=0.3333333333333333;exitDx=0;exitDy=0;exitPerimeter=0;entryX=1;entryY=0.5;entryDx=0;entryDy=0;" edge="1" source="qFoNEInCb8xIXZmdPU0b-8" target="qFoNEInCb8xIXZmdPU0b-10" parent="1">
          <mxGeometry width="50" height="50" relative="1" as="geometry">
            <mxPoint x="556" y="265" as="sourcePoint" />
            <mxPoint x="456" y="263" as="targetPoint" />
          </mxGeometry>
        </mxCell>
        <mxCell id="qFoNEInCb8xIXZmdPU0b-14" value="" style="endArrow=none;html=1;rounded=0;entryX=1;entryY=0.5;entryDx=0;entryDy=0;exitX=0;exitY=0.3333333333333333;exitDx=0;exitDy=0;exitPerimeter=0;" edge="1" source="qFoNEInCb8xIXZmdPU0b-8" target="qFoNEInCb8xIXZmdPU0b-11" parent="1">
          <mxGeometry width="50" height="50" relative="1" as="geometry">
            <mxPoint x="556" y="264" as="sourcePoint" />
            <mxPoint x="629" y="220" as="targetPoint" />
          </mxGeometry>
        </mxCell>
        <mxCell id="qFoNEInCb8xIXZmdPU0b-15" value="录入学生体测数据" style="ellipse;whiteSpace=wrap;html=1;" vertex="1" parent="1">
          <mxGeometry x="641" y="170" width="120" height="50" as="geometry" />
        </mxCell>
        <mxCell id="qFoNEInCb8xIXZmdPU0b-16" value="查询学生体测数据" style="ellipse;whiteSpace=wrap;html=1;" vertex="1" parent="1">
          <mxGeometry x="641" y="300" width="120" height="50" as="geometry" />
        </mxCell>
        <mxCell id="qFoNEInCb8xIXZmdPU0b-18" value="" style="endArrow=none;html=1;rounded=0;entryX=0;entryY=0.5;entryDx=0;entryDy=0;exitX=1;exitY=0.3333333333333333;exitDx=0;exitDy=0;exitPerimeter=0;" edge="1" parent="1" source="qFoNEInCb8xIXZmdPU0b-8" target="qFoNEInCb8xIXZmdPU0b-15">
          <mxGeometry width="50" height="50" relative="1" as="geometry">
            <mxPoint x="552" y="267" as="sourcePoint" />
            <mxPoint x="629" y="220" as="targetPoint" />
          </mxGeometry>
        </mxCell>
        <mxCell id="qFoNEInCb8xIXZmdPU0b-19" value="" style="endArrow=none;html=1;rounded=0;exitX=1;exitY=0.3333333333333333;exitDx=0;exitDy=0;exitPerimeter=0;entryX=0;entryY=0.5;entryDx=0;entryDy=0;" edge="1" parent="1" source="qFoNEInCb8xIXZmdPU0b-8" target="qFoNEInCb8xIXZmdPU0b-16">
          <mxGeometry width="50" height="50" relative="1" as="geometry">
            <mxPoint x="552" y="267" as="sourcePoint" />
            <mxPoint x="559" y="356" as="targetPoint" />
          </mxGeometry>
        </mxCell>
        <mxCell id="qFoNEInCb8xIXZmdPU0b-21" value="管理员" style="shape=umlActor;verticalLabelPosition=bottom;verticalAlign=top;html=1;outlineConnect=0;" vertex="1" parent="1">
          <mxGeometry x="532" y="563" width="30" height="60" as="geometry" />
        </mxCell>
        <mxCell id="qFoNEInCb8xIXZmdPU0b-22" value="修改密码" style="ellipse;whiteSpace=wrap;html=1;flipV=1;" vertex="1" parent="1">
          <mxGeometry x="339" y="491" width="120" height="50" as="geometry" />
        </mxCell>
        <mxCell id="qFoNEInCb8xIXZmdPU0b-23" value="发布体测任务" style="ellipse;whiteSpace=wrap;html=1;flipV=1;" vertex="1" parent="1">
          <mxGeometry x="339" y="574" width="120" height="50" as="geometry" />
        </mxCell>
        <mxCell id="qFoNEInCb8xIXZmdPU0b-24" value="发布体测标准" style="ellipse;whiteSpace=wrap;html=1;flipV=1;" vertex="1" parent="1">
          <mxGeometry x="339" y="657" width="120" height="50" as="geometry" />
        </mxCell>
        <mxCell id="qFoNEInCb8xIXZmdPU0b-25" value="" style="endArrow=none;html=1;rounded=0;entryX=1;entryY=0.5;entryDx=0;entryDy=0;exitX=0;exitY=0.3333333333333333;exitDx=0;exitDy=0;exitPerimeter=0;" edge="1" source="qFoNEInCb8xIXZmdPU0b-21" target="qFoNEInCb8xIXZmdPU0b-22" parent="1">
          <mxGeometry width="50" height="50" relative="1" as="geometry">
            <mxPoint x="552" y="590" as="sourcePoint" />
            <mxPoint x="629" y="543" as="targetPoint" />
          </mxGeometry>
        </mxCell>
        <mxCell id="qFoNEInCb8xIXZmdPU0b-26" value="" style="endArrow=none;html=1;rounded=0;exitX=0;exitY=0.3333333333333333;exitDx=0;exitDy=0;exitPerimeter=0;entryX=1;entryY=0.5;entryDx=0;entryDy=0;" edge="1" source="qFoNEInCb8xIXZmdPU0b-21" target="qFoNEInCb8xIXZmdPU0b-23" parent="1">
          <mxGeometry width="50" height="50" relative="1" as="geometry">
            <mxPoint x="556" y="588" as="sourcePoint" />
            <mxPoint x="456" y="586" as="targetPoint" />
          </mxGeometry>
        </mxCell>
        <mxCell id="qFoNEInCb8xIXZmdPU0b-27" value="" style="endArrow=none;html=1;rounded=0;entryX=1;entryY=0.5;entryDx=0;entryDy=0;exitX=0;exitY=0.3333333333333333;exitDx=0;exitDy=0;exitPerimeter=0;" edge="1" source="qFoNEInCb8xIXZmdPU0b-21" target="qFoNEInCb8xIXZmdPU0b-24" parent="1">
          <mxGeometry width="50" height="50" relative="1" as="geometry">
            <mxPoint x="556" y="587" as="sourcePoint" />
            <mxPoint x="629" y="543" as="targetPoint" />
          </mxGeometry>
        </mxCell>
        <mxCell id="qFoNEInCb8xIXZmdPU0b-28" value="录入学生体测数据" style="ellipse;whiteSpace=wrap;html=1;" vertex="1" parent="1">
          <mxGeometry x="641" y="493" width="120" height="50" as="geometry" />
        </mxCell>
        <mxCell id="qFoNEInCb8xIXZmdPU0b-29" value="查询学生体测数据" style="ellipse;whiteSpace=wrap;html=1;" vertex="1" parent="1">
          <mxGeometry x="641" y="555" width="120" height="50" as="geometry" />
        </mxCell>
        <mxCell id="qFoNEInCb8xIXZmdPU0b-30" value="" style="endArrow=none;html=1;rounded=0;entryX=0;entryY=0.5;entryDx=0;entryDy=0;exitX=1;exitY=0.3333333333333333;exitDx=0;exitDy=0;exitPerimeter=0;" edge="1" source="qFoNEInCb8xIXZmdPU0b-21" target="qFoNEInCb8xIXZmdPU0b-28" parent="1">
          <mxGeometry width="50" height="50" relative="1" as="geometry">
            <mxPoint x="552" y="590" as="sourcePoint" />
            <mxPoint x="629" y="543" as="targetPoint" />
          </mxGeometry>
        </mxCell>
        <mxCell id="qFoNEInCb8xIXZmdPU0b-31" value="" style="endArrow=none;html=1;rounded=0;exitX=1;exitY=0.3333333333333333;exitDx=0;exitDy=0;exitPerimeter=0;entryX=0;entryY=0.5;entryDx=0;entryDy=0;" edge="1" source="qFoNEInCb8xIXZmdPU0b-21" target="qFoNEInCb8xIXZmdPU0b-29" parent="1">
          <mxGeometry width="50" height="50" relative="1" as="geometry">
            <mxPoint x="552" y="590" as="sourcePoint" />
            <mxPoint x="559" y="679" as="targetPoint" />
          </mxGeometry>
        </mxCell>
        <mxCell id="qFoNEInCb8xIXZmdPU0b-32" value="学生、教师&lt;br&gt;基础信息维护" style="ellipse;whiteSpace=wrap;html=1;" vertex="1" parent="1">
          <mxGeometry x="641" y="616" width="120" height="51" as="geometry" />
        </mxCell>
        <mxCell id="qFoNEInCb8xIXZmdPU0b-33" value="体测数据统计" style="ellipse;whiteSpace=wrap;html=1;" vertex="1" parent="1">
          <mxGeometry x="641" y="678" width="120" height="51" as="geometry" />
        </mxCell>
        <mxCell id="qFoNEInCb8xIXZmdPU0b-34" value="体测数据导出" style="ellipse;whiteSpace=wrap;html=1;" vertex="1" parent="1">
          <mxGeometry x="641" y="740" width="120" height="51" as="geometry" />
        </mxCell>
        <mxCell id="qFoNEInCb8xIXZmdPU0b-35" value="用户管理" style="ellipse;whiteSpace=wrap;html=1;" vertex="1" parent="1">
          <mxGeometry x="339" y="740" width="120" height="51" as="geometry" />
        </mxCell>
        <mxCell id="qFoNEInCb8xIXZmdPU0b-36" value="" style="endArrow=none;html=1;rounded=0;exitX=1;exitY=0.3333333333333333;exitDx=0;exitDy=0;exitPerimeter=0;entryX=0;entryY=0.5;entryDx=0;entryDy=0;" edge="1" parent="1" source="qFoNEInCb8xIXZmdPU0b-21" target="qFoNEInCb8xIXZmdPU0b-32">
          <mxGeometry width="50" height="50" relative="1" as="geometry">
            <mxPoint x="552" y="590" as="sourcePoint" />
            <mxPoint x="559" y="679" as="targetPoint" />
          </mxGeometry>
        </mxCell>
        <mxCell id="qFoNEInCb8xIXZmdPU0b-37" value="" style="endArrow=none;html=1;rounded=0;exitX=1;exitY=0.3333333333333333;exitDx=0;exitDy=0;exitPerimeter=0;entryX=0;entryY=0.5;entryDx=0;entryDy=0;" edge="1" parent="1" source="qFoNEInCb8xIXZmdPU0b-21" target="qFoNEInCb8xIXZmdPU0b-33">
          <mxGeometry width="50" height="50" relative="1" as="geometry">
            <mxPoint x="552" y="590" as="sourcePoint" />
            <mxPoint x="559" y="679" as="targetPoint" />
          </mxGeometry>
        </mxCell>
        <mxCell id="qFoNEInCb8xIXZmdPU0b-38" value="" style="endArrow=none;html=1;rounded=0;exitX=1;exitY=0.3333333333333333;exitDx=0;exitDy=0;exitPerimeter=0;entryX=0;entryY=0.5;entryDx=0;entryDy=0;" edge="1" parent="1" source="qFoNEInCb8xIXZmdPU0b-21" target="qFoNEInCb8xIXZmdPU0b-34">
          <mxGeometry width="50" height="50" relative="1" as="geometry">
            <mxPoint x="552" y="590" as="sourcePoint" />
            <mxPoint x="559" y="679" as="targetPoint" />
          </mxGeometry>
        </mxCell>
        <mxCell id="qFoNEInCb8xIXZmdPU0b-39" value="" style="endArrow=none;html=1;rounded=0;entryX=1;entryY=0.5;entryDx=0;entryDy=0;exitX=0;exitY=0.3333333333333333;exitDx=0;exitDy=0;exitPerimeter=0;" edge="1" parent="1" source="qFoNEInCb8xIXZmdPU0b-21" target="qFoNEInCb8xIXZmdPU0b-35">
          <mxGeometry width="50" height="50" relative="1" as="geometry">
            <mxPoint x="556" y="587" as="sourcePoint" />
            <mxPoint x="629" y="543" as="targetPoint" />
          </mxGeometry>
        </mxCell>
      </root>
    </mxGraphModel>
  </diagram>
</mxfile>
